<?xml version="1.0" encoding="utf-8"?>
<!-- Generator: Adobe Illustrator 25.2.0, SVG Export Plug-In . SVG Version: 6.00 Build 0)  -->
<svg version="1.1" id="Capa_1" xmlns="http://www.w3.org/2000/svg" xmlns:xlink="http://www.w3.org/1999/xlink" x="0px" y="0px"
	 viewBox="0 0 255.1 255" style="enable-background:new 0 0 255.1 255;" xml:space="preserve">
<style type="text/css">
	.st0{fill:#E2E3E4;}
	.st1{fill:#595A5C;}
	.st2{fill:#75B7E8;}
</style>
<path class="st0" d="M185.3,36.9c17.4,20.3,37.1,39,37.1,67.8c0,64.1-51.9,116-116,116c-28.8,0-46.2-16.1-66.5-33.5
	c24.6,28.7,51,52.7,96.6,44.5c34.1-6.1,66.7-21.8,84.4-51.7C261.6,111.1,221.5,67.8,185.3,36.9"/>
<path class="st1" d="M129,238.2c-6.2,0-12.5-0.5-18.9-1.5C64.3,229.2,27,191.9,19.4,146c-5.9-36.2,5.4-71.7,31-97.3
	c25.7-25.6,61.2-36.9,97.3-31c45.9,7.5,83.2,44.8,90.7,90.8l0,0c5.9,36.2-5.4,71.7-31,97.3C186.3,226.8,158.5,238.2,129,238.2z
	 M128.9,25.9c-26.9,0-52.2,10.4-71.5,29.7C34,79,23.7,111.4,29.1,144.4c6.9,41.8,40.9,75.8,82.7,82.7c32.9,5.4,65.4-4.9,88.8-28.3
	s33.7-55.7,28.3-88.8l0,0c-6.9-41.8-40.8-75.8-82.6-82.7C140.4,26.4,134.6,25.9,128.9,25.9z"/>
<g>
	<path class="st2" d="M134.4,102.2h-13c-1.5,0-2.9,1.3-2.9,2.9l-0.7,77.9c0,0.8,0.3,1.6,0.8,2.2c0.6,0.6,1.3,0.9,2.1,0.9h13.6
		c0.8,0,1.5-0.3,2.1-0.9c0.5-0.6,0.8-1.3,0.8-2.2l0.1-77.9C137.3,103.5,136,102.2,134.4,102.2"/>
	<path class="st2" d="M127.5,95c7.2,0,12.5-5.6,12.5-13c0-7.5-5.4-13.1-12.5-13.1c-7.2,0-12.5,5.5-12.5,13.1
		C115,89.6,120.2,95,127.5,95"/>
</g>
</svg>
