<svg id="Capa_1" data-name="Capa 1" xmlns="http://www.w3.org/2000/svg" viewBox="0 0 142.21 116.17"><defs><style>.cls-1{fill:#606060;}</style></defs><g id="Grupo_73" data-name="Grupo 73"><path id="shape_2" data-name="shape 2" class="cls-1" d="M43.5,85.81l3.91-14.24A27.45,27.45,0,1,1,71.22,85.34h0A27.42,27.42,0,0,1,58.09,82ZM58.73,77l.84.49a22.74,22.74,0,0,0,11.62,3.18h0A22.83,22.83,0,1,0,51.84,70l.55.87-2.31,8.42Z"/><path id="shape_1" data-name="shape 1" class="cls-1" d="M64.35,46.36c-.52-1.15-1.06-1.17-1.55-1.19s-.86,0-1.31,0a2.51,2.51,0,0,0-1.83.86,7.71,7.71,0,0,0-2.41,5.73,13.35,13.35,0,0,0,2.8,7.1A28.21,28.21,0,0,0,71.79,69.22c5.8,2.29,7,1.84,8.24,1.74a6.94,6.94,0,0,0,4.63-3.27,5.7,5.7,0,0,0,.4-3.26c-.17-.29-.63-.46-1.32-.8s-4.06-2-4.69-2.24-1.09-.34-1.54.35S75.74,64,75.33,64.43s-.8.51-1.48.17a18.63,18.63,0,0,1-5.54-3.41,20.78,20.78,0,0,1-3.81-4.75c-.4-.7,0-1.06.3-1.4s.7-.81,1-1.21a4.29,4.29,0,0,0,.69-1.14,1.24,1.24,0,0,0-.06-1.21C66.29,51.11,65,47.71,64.35,46.36Z"/></g></svg>