<?xml version="1.0" encoding="utf-8"?>
<!-- Generator: Adobe Illustrator 25.2.0, SVG Export Plug-In . SVG Version: 6.00 Build 0)  -->
<svg version="1.1" id="Capa_1" xmlns="http://www.w3.org/2000/svg" xmlns:xlink="http://www.w3.org/1999/xlink" x="0px" y="0px"
	 viewBox="0 0 255.1 255" style="enable-background:new 0 0 255.1 255;" xml:space="preserve">
<style type="text/css">
	.st0{fill:#E2E3E4;}
	.st1{fill:#595A5C;}
	.st2{fill:#CE7419;}
</style>
<path class="st0" d="M183.9,37.2c17.4,20.3,37.1,39,37.1,67.8c0,64.1-51.9,116-116,116c-28.8,0-46.2-16.1-66.5-33.5
	c24.6,28.7,51,52.7,96.6,44.5c34.1-6.1,66.7-21.8,84.4-51.7C260.2,111.5,220.1,68.2,183.9,37.2"/>
<path class="st1" d="M127.6,238.6c-6.2,0-12.5-0.5-18.9-1.5c-45.9-7.5-83.2-44.8-90.8-90.7c-5.9-36.2,5.4-71.7,31-97.3
	c25.7-25.6,61.2-36.9,97.3-31c45.9,7.5,83.2,44.8,90.7,90.8l0,0c5.9,36.2-5.4,71.7-31,97.3C184.9,227.2,157.1,238.6,127.6,238.6z
	 M127.5,26.2c-26.9,0-52.2,10.4-71.5,29.7c-23.4,23.4-33.7,55.8-28.3,88.8c6.9,41.8,40.9,75.8,82.7,82.7
	c32.9,5.4,65.4-4.9,88.8-28.3s33.7-55.7,28.3-88.8l0,0c-6.9-41.8-40.8-75.8-82.6-82.7C139,26.7,133.2,26.2,127.5,26.2z"/>
<g>
	<path class="st2" d="M174,163.8l-34.9-33.9L173,95.1c2.8-2.9,2.8-7.6-0.1-10.4c-2.9-2.8-7.5-2.8-10.4,0.1l-33.9,34.9L93.8,85.8
		c-2.9-2.8-7.5-2.8-10.4,0.1c-2.8,2.9-2.8,7.6,0.1,10.4l34.9,33.9l-33.9,34.9c-2.8,2.9-2.8,7.6,0.1,10.4c1.4,1.4,3.3,2.1,5.1,2.1
		c1.9,0,3.8-0.7,5.3-2.2l33.9-34.9l34.9,33.9c1.4,1.4,3.3,2.1,5.1,2.1c1.9,0,3.8-0.7,5.3-2.2C177,171.3,177,166.6,174,163.8z"/>
</g>
</svg>
