<?xml version="1.0" encoding="utf-8"?>
<!-- Generator: Adobe Illustrator 25.2.0, SVG Export Plug-In . SVG Version: 6.00 Build 0)  -->
<svg version="1.1" id="Capa_1" xmlns="http://www.w3.org/2000/svg" xmlns:xlink="http://www.w3.org/1999/xlink" x="0px" y="0px"
	 viewBox="0 0 255.1 255" style="enable-background:new 0 0 255.1 255;" xml:space="preserve">
<style type="text/css">
	.st0{fill:#E2E3E4;}
	.st1{fill:#595A5C;}
	.st2{fill:#006196;}
</style>
<path class="st0" d="M185.3,36.9c17.4,20.3,37.1,39,37.1,67.8c0,64.1-51.9,116-116,116c-28.8,0-46.2-16.1-66.5-33.5
	c24.6,28.7,51,52.7,96.6,44.5c34.1-6.1,66.7-21.8,84.4-51.7C261.6,111.1,221.5,67.8,185.3,36.9"/>
<path class="st1" d="M129,238.2c-6.2,0-12.5-0.5-18.9-1.5C64.3,229.2,27,191.9,19.4,146c-5.9-36.2,5.4-71.7,31-97.3
	c25.7-25.6,61.2-36.9,97.3-31c45.9,7.5,83.2,44.8,90.7,90.8l0,0c5.9,36.2-5.4,71.7-31,97.3C186.3,226.8,158.5,238.2,129,238.2z
	 M128.9,25.9c-26.9,0-52.2,10.4-71.5,29.7C34,79,23.7,111.4,29.1,144.4c6.9,41.8,40.9,75.8,82.7,82.7c32.9,5.4,65.4-4.9,88.8-28.3
	s33.7-55.7,28.3-88.8l0,0c-6.9-41.8-40.8-75.8-82.6-82.7C140.4,26.4,134.6,25.9,128.9,25.9z"/>
<path class="st2" d="M110.9,182.8c-1.9,0-3.7-0.8-5-2.1l-32.6-33.5c-2.7-2.8-2.6-7.2,0.1-9.9c2.8-2.7,7.2-2.6,9.9,0.1l27.3,28
	l63.7-75.5c2.5-2.9,6.9-3.3,9.8-0.8c2.9,2.5,3.3,6.9,0.8,9.8l-68.7,81.4c-1.3,1.5-3.1,2.4-5.1,2.5
	C111.1,182.8,111,182.8,110.9,182.8z"/>
</svg>
