<svg id="Capa_1" data-name="Capa 1" xmlns="http://www.w3.org/2000/svg" viewBox="0 0 142.21 116.17"><defs><style>.cls-1{fill:#606060;}</style></defs><path class="cls-1" d="M86.18,86.15c-2.51,0-6.4-.64-14.51-3.84-8.8-3.48-17.46-11-24.38-21.31l-.24-.35a28.81,28.81,0,0,1-6-15.36,17.49,17.49,0,0,1,5.42-13A6.8,6.8,0,0,1,51.3,30c1.15,0,2,0,2.81,0,1.55.08,3.28.41,4.64,3.44.75,1.66,2,4.82,3,7.24.62,1.56,1.12,2.79,1.25,3.07a4.14,4.14,0,0,1,.12,3.95,11.15,11.15,0,0,1-1.59,2.66l-.82,1A20.72,20.72,0,0,1,59.31,53a3.69,3.69,0,0,0-.47.54,40.75,40.75,0,0,0,7.58,9.5,36.29,36.29,0,0,0,10.7,6.59A2.84,2.84,0,0,0,78,70h0c1.2-1.36,3.67-4.3,4.48-5.5,1.74-2.61,4.06-1.77,5.17-1.36,1.57.57,9.65,4.58,9.73,4.62l.75.37A5.58,5.58,0,0,1,100.79,70a1.8,1.8,0,0,1,.22.6,13.37,13.37,0,0,1-.94,7.62,15.9,15.9,0,0,1-10.68,7.65l-.87.1A19,19,0,0,1,86.18,86.15ZM51.81,33.48h-.25a3.55,3.55,0,0,0-2.64,1.16,14.1,14.1,0,0,0-4.45,10.48A25.31,25.31,0,0,0,49.8,58.55l.36.52c6.53,9.69,14.62,16.8,22.78,20,10.26,4,13,3.71,15.18,3.46l.78-.09a12.26,12.26,0,0,0,8.1-5.8,9.77,9.77,0,0,0,.67-4.94l-1-.5-.79-.39c-1.88-.94-8.26-4.07-9.36-4.47a3.88,3.88,0,0,0-.9-.26h0s-.09.1-.22.29c-1,1.46-3.68,4.65-4.55,5.65a3.9,3.9,0,0,1-5.1.76A39.16,39.16,0,0,1,64.1,65.62,44,44,0,0,1,56,55.51a3.75,3.75,0,0,1,.9-5c.35-.35.75-.85,1.17-1.35.28-.34.56-.69.84-1A8.06,8.06,0,0,0,60,46.34a.91.91,0,0,0,0-.88c-.22-.43-.76-1.75-1.43-3.42-1-2.38-2.22-5.49-3-7.13h0c-.6-1.34-.9-1.36-1.63-1.39S52.56,33.48,51.81,33.48Z"/></svg>