<svg id="Capa_1" data-name="Capa 1" xmlns="http://www.w3.org/2000/svg" viewBox="0 0 142.21 116.17"><defs><style>.cls-1{fill:#606060;}</style></defs><g id="Grupo_72" data-name="Grupo 72"><g id="Grupo_70" data-name="Grupo 70"><path id="Trazado_88" data-name="Trazado 88" class="cls-1" d="M103.69,80.12H38.52a1.61,1.61,0,0,1-1.61-1.61h0V37.67a1.62,1.62,0,0,1,1.61-1.62h65.17a1.62,1.62,0,0,1,1.61,1.62V78.51A1.61,1.61,0,0,1,103.69,80.12ZM40.14,76.89h61.93V39.3H40.14Z"/></g><g id="Grupo_71" data-name="Grupo 71"><path id="Trazado_89" data-name="Trazado 89" class="cls-1" d="M71.11,60.11a1.56,1.56,0,0,1-.89-.27l-31-20.91a1.57,1.57,0,0,1-.41-2.19,1.55,1.55,0,0,1,1.29-.68h61.93a1.57,1.57,0,0,1,.88,2.87L72,59.84A1.55,1.55,0,0,1,71.11,60.11ZM45.28,39.2,71.11,56.65,96.92,39.22Z"/></g></g></svg>