<svg xmlns="http://www.w3.org/2000/svg" width="33" height="22" viewBox="0 0 33 22">
    <g fill="#FFF" fill-rule="evenodd">
        <path d="M9.552 2.245c-.814 0-1.547.769-2.193 1.452-.133.137-.26.274-.385.396-.619.62-.557 2.258.164 4.166.89 2.36 2.654 4.938 4.977 7.257 2.322 2.32 4.896 4.087 7.253 4.975 1.911.722 3.545.786 4.17.16.121-.122.254-.247.391-.38.7-.66 1.488-1.415 1.455-2.247-.023-.572-.44-1.19-1.24-1.828-2.389-1.922-3.059-1.243-4.166-.122l-.217.22c-.529.532-1.387.416-2.559-.345-.81-.527-1.81-1.386-2.974-2.551-2.873-2.872-3.795-4.63-2.893-5.532l.215-.211c1.13-1.111 1.805-1.777-.115-4.17-.643-.8-1.26-1.217-1.83-1.24h-.053zm12.55 19.514c-.845 0-1.859-.213-2.972-.635-2.449-.92-5.107-2.743-7.496-5.128-2.387-2.388-4.209-5.051-5.135-7.5-.838-2.222-.838-4.048-.006-4.884.123-.12.246-.25.371-.382.764-.801 1.645-1.711 2.768-1.661.79.029 1.551.523 2.334 1.492 2.305 2.87 1.266 3.89.063 5.078l-.215.21c-.196.197-.569 1.108 2.894 4.572 1.131 1.13 2.094 1.957 2.865 2.459.485.315 1.352.79 1.706.434l.214-.216c1.184-1.201 2.21-2.24 5.08.07.97.778 1.458 1.542 1.493 2.33.047 1.14-.868 2.007-1.67 2.768-.129.129-.26.248-.377.367-.418.416-1.084.626-1.918.626zM22.222 9.91a.337.337 0 0 1-.316-.466 2.861 2.861 0 0 0-.627-3.093 2.884 2.884 0 0 0-3.198-.58.34.34 0 0 1-.447-.17.339.339 0 0 1 .168-.45 3.547 3.547 0 0 1 3.955.722 3.522 3.522 0 0 1 .776 3.829.341.341 0 0 1-.31.209"/>
        <path d="M25.251 11.139a.33.33 0 0 1-.129-.022.336.336 0 0 1-.185-.44 6.118 6.118 0 0 0-1.346-6.637 6.156 6.156 0 0 0-6.858-1.252.346.346 0 0 1-.45-.173.34.34 0 0 1 .17-.445 6.832 6.832 0 0 1 7.618 1.39 6.793 6.793 0 0 1 1.496 7.37.337.337 0 0 1-.316.209"/>
    </g>
</svg>
