<svg xmlns="http://www.w3.org/2000/svg" width="32" height="22" viewBox="0 0 32 22">
    <path fill="#FFF" fill-rule="evenodd" d="M10.152 17h2.57V8.901h-2.57V17zm1.304-12C10.573 5 10 5.602 10 6.397c0 .78.559 1.4 1.42 1.4h.018c.896 0 1.455-.62 1.455-1.4C12.876 5.602 12.334 5 11.456 5zM22 12.358V17h-2.573v-4.333c0-1.09-.373-1.83-1.305-1.83-.707 0-1.131.502-1.318.986-.066.17-.086.411-.086.655V17h-2.572s.033-7.337 0-8.099h2.572v1.149c-.005.007-.011.02-.016.025h.016v-.025c.344-.552.952-1.338 2.32-1.338C20.731 8.712 22 9.87 22 12.358z"/>
</svg>
