<svg xmlns="http://www.w3.org/2000/svg" width="32" height="22" viewBox="0 0 32 22">
    <path fill="none" fill-rule="evenodd" stroke="#FFF" stroke-linecap="round" stroke-linejoin="round" stroke-width=".645" d="M16 11.98a2.991 2.991 0 0 1-2.99-2.985A2.992 2.992 0 0 1 16 6.008a2.99 2.99 0 0 1 2.988 2.987A2.99 2.99 0 0 1 16 11.98zM16 2c-3.861 0-7 3.138-7 6.995 0 1.007.206 1.968.612 2.856 1.75 3.826 5.106 7.867 6.094 9.014.072.085.18.135.294.135.112 0 .222-.05.296-.135.985-1.147 4.34-5.186 6.092-9.014A6.814 6.814 0 0 0 23 8.995C23 5.138 19.86 2 16 2z"/>
</svg>
